<!DOCTYPE svg PUBLIC "-//W3C//DTD SVG 1.1//EN" "http://www.w3.org/Graphics/SVG/1.1/DTD/svg11.dtd">
<!-- Uploaded to: SVG Repo, www.svgrepo.com, Transformed by: SVG Repo Mixer Tools -->
<svg fill="#000000" width="180px" height="180px" viewBox="0 0 24.00 24.00" id="laundry-basket-2" data-name="Flat Line" xmlns="http://www.w3.org/2000/svg" class="icon flat-line">
<g id="SVGRepo_bgCarrier" stroke-width="0"/>
<g id="SVGRepo_tracerCarrier" stroke-linecap="round" stroke-linejoin="round" stroke="#CCCCCC" stroke-width="1.536"/>
<g id="SVGRepo_iconCarrier">
<path id="secondary" d="M15,5V8a1,1,0,0,1-1,1H10A1,1,0,0,1,9,8V5H4l.93,13.07a1,1,0,0,0,1,.93H18.07a1,1,0,0,0,1-.93L20,5Z" style="fill: #8c75bd; stroke-width: 2;"/>
<path id="primary" d="M14,9H10A1,1,0,0,1,9,8V5h6V8A1,1,0,0,1,14,9ZM3,5H21M19.07,18.07,20,5H4l.93,13.07a1,1,0,0,0,1,.93H18.07A1,1,0,0,0,19.07,18.07Z" style="fill: none; stroke: #594b77; stroke-linecap: round; stroke-linejoin: round; stroke-width: 2;"/>
</g>
</svg>